<svg id="mermaid-1779201139069" width="1449.328125" xmlns="http://www.w3.org/2000/svg" xmlns:xlink="http://www.w3.org/1999/xlink" height="739.75" viewBox="-8 -8 1449.328125 739.75" role="graphics-document document" aria-roledescription="flowchart-v2"><style>#mermaid-1779201139069{font-size:13px;fill:#1b1b1b;}#mermaid-1779201139069 .error-icon{fill:#daf181;}#mermaid-1779201139069 .error-text{fill:#250e7e;stroke:#250e7e;}#mermaid-1779201139069 .edge-thickness-normal{stroke-width:2px;}#mermaid-1779201139069 .edge-thickness-thick{stroke-width:3.5px;}#mermaid-1779201139069 .edge-pattern-solid{stroke-dasharray:0;}#mermaid-1779201139069 .edge-pattern-dashed{stroke-dasharray:3;}#mermaid-1779201139069 .edge-pattern-dotted{stroke-dasharray:2;}#mermaid-1779201139069 .marker{fill:#888888;stroke:#888888;}#mermaid-1779201139069 .marker.cross{stroke:#888888;}#mermaid-1779201139069 svg{font-size:13px;}#mermaid-1779201139069 .label{color:#1b1b1b;}#mermaid-1779201139069 .cluster-label text{fill:#250e7e;}#mermaid-1779201139069 .cluster-label span,#mermaid-1779201139069 p{color:#250e7e;}#mermaid-1779201139069 .label text,#mermaid-1779201139069 span,#mermaid-1779201139069 p{fill:#1b1b1b;color:#1b1b1b;}#mermaid-1779201139069 .node rect,#mermaid-1779201139069 .node circle,#mermaid-1779201139069 .node ellipse,#mermaid-1779201139069 .node polygon,#mermaid-1779201139069 .node path{fill:#a9e0ff;stroke:#5bbfee;stroke-width:1px;}#mermaid-1779201139069 .flowchart-label text{text-anchor:middle;}#mermaid-1779201139069 .node .katex path{fill:#000;stroke:#000;stroke-width:1px;}#mermaid-1779201139069 .node .label{text-align:center;}#mermaid-1779201139069 .node.clickable{cursor:pointer;}#mermaid-1779201139069 .arrowheadPath{fill:#0b0b0b;}#mermaid-1779201139069 .edgePath .path{stroke:#888888;stroke-width:2.0px;}#mermaid-1779201139069 .flowchart-link{stroke:#888888;fill:none;}#mermaid-1779201139069 .edgeLabel{background-color:#ffffff;text-align:center;}#mermaid-1779201139069 .edgeLabel rect{opacity:0.5;background-color:#ffffff;fill:#ffffff;}#mermaid-1779201139069 .labelBkg{background-color:rgba(255, 255, 255, 0.5);}#mermaid-1779201139069 .cluster rect{fill:#f6f6f6;stroke:#cccccc;stroke-width:1px;}#mermaid-1779201139069 .cluster text{fill:#250e7e;}#mermaid-1779201139069 .cluster span,#mermaid-1779201139069 p{color:#250e7e;}#mermaid-1779201139069 div.mermaidTooltip{position:absolute;text-align:center;max-width:200px;padding:2px;font-size:12px;background:#daf181;border:1px solid hsl(72.3214285714, 40%, 62.5490196078%);border-radius:2px;pointer-events:none;z-index:100;}#mermaid-1779201139069 .flowchartTitleText{text-anchor:middle;font-size:18px;fill:#1b1b1b;}#mermaid-1779201139069 :root{--mermaid-font-family:"trebuchet ms",verdana,arial,sans-serif;}</style><g><marker id="mermaid-1779201139069_flowchart-pointEnd" class="marker flowchart" viewBox="0 0 10 10" refX="6" refY="5" markerUnits="userSpaceOnUse" markerWidth="12" markerHeight="12" orient="auto"><path d="M 0 0 L 10 5 L 0 10 z" class="arrowMarkerPath" style="stroke-width: 1; stroke-dasharray: 1, 0;"></path></marker><marker id="mermaid-1779201139069_flowchart-pointStart" class="marker flowchart" viewBox="0 0 10 10" refX="4.5" refY="5" markerUnits="userSpaceOnUse" markerWidth="12" markerHeight="12" orient="auto"><path d="M 0 5 L 10 10 L 10 0 z" class="arrowMarkerPath" style="stroke-width: 1; stroke-dasharray: 1, 0;"></path></marker><marker id="mermaid-1779201139069_flowchart-circleEnd" class="marker flowchart" viewBox="0 0 10 10" refX="11" refY="5" markerUnits="userSpaceOnUse" markerWidth="11" markerHeight="11" orient="auto"><circle cx="5" cy="5" r="5" class="arrowMarkerPath" style="stroke-width: 1; stroke-dasharray: 1, 0;"></circle></marker><marker id="mermaid-1779201139069_flowchart-circleStart" class="marker flowchart" viewBox="0 0 10 10" refX="-1" refY="5" markerUnits="userSpaceOnUse" markerWidth="11" markerHeight="11" orient="auto"><circle cx="5" cy="5" r="5" class="arrowMarkerPath" style="stroke-width: 1; stroke-dasharray: 1, 0;"></circle></marker><marker id="mermaid-1779201139069_flowchart-crossEnd" class="marker cross flowchart" viewBox="0 0 11 11" refX="12" refY="5.2" markerUnits="userSpaceOnUse" markerWidth="11" markerHeight="11" orient="auto"><path d="M 1,1 l 9,9 M 10,1 l -9,9" class="arrowMarkerPath" style="stroke-width: 2; stroke-dasharray: 1, 0;"></path></marker><marker id="mermaid-1779201139069_flowchart-crossStart" class="marker cross flowchart" viewBox="0 0 11 11" refX="-1" refY="5.2" markerUnits="userSpaceOnUse" markerWidth="11" markerHeight="11" orient="auto"><path d="M 1,1 l 9,9 M 10,1 l -9,9" class="arrowMarkerPath" style="stroke-width: 2; stroke-dasharray: 1, 0;"></path></marker><g class="root"><g class="clusters"><g class="cluster default flowchart-label" id="GOLD"><rect style="" rx="0" ry="0" x="1222.125" y="0" width="211.203125" height="723.75"></rect><g class="cluster-label" transform="translate(1288.125, 0)"><foreignobject width="79.203125" height="17"><div xmlns="http://www.w3.org/1999/xhtml" style="display: inline-block; white-space: nowrap;"><span class="nodeLabel">🥇  Gold Marts</span></div></foreignobject></g></g><g class="cluster default flowchart-label" id="SILVER"><rect style="" rx="0" ry="0" x="1018.4453125" y="7.5" width="153.6796875" height="715.25"></rect><g class="cluster-label" transform="translate(1020.8828125, 7.5)"><foreignobject width="148.8046875" height="17"><div xmlns="http://www.w3.org/1999/xhtml" style="display: inline-block; white-space: nowrap;"><span class="nodeLabel">🥈  Silver Tables (Curated)</span></div></foreignobject></g></g><g class="cluster default flowchart-label" id="BRONZE"><rect style="" rx="0" ry="0" x="787.9296875" y="7.5" width="180.515625" height="707.75"></rect><g class="cluster-label" transform="translate(811.15234375, 7.5)"><foreignobject width="134.0703125" height="17"><div xmlns="http://www.w3.org/1999/xhtml" style="display: inline-block; white-space: nowrap;"><span class="nodeLabel">🥉  Bronze Tables (Raw)</span></div></foreignobject></g></g><g class="cluster default flowchart-label" id="LANDING"><rect style="" rx="0" ry="0" x="283.8984375" y="163.5999584197998" width="454.03125" height="423.0500831604004"></rect><g class="cluster-label" transform="translate(417.2734375, 163.5999584197998)"><foreignobject width="187.28125" height="32"><div xmlns="http://www.w3.org/1999/xhtml" style="display: inline-block; white-space: nowrap;"><span class="nodeLabel">🗄️  Bronze Landing Volume<br>/Volumes/.../landing/external/</span></div></foreignobject></g></g><g class="cluster default flowchart-label" id="SRC"><rect style="" rx="0" ry="0" x="0" y="21.5" width="233.8984375" height="687.25"></rect><g class="cluster-label" transform="translate(86.40234375, 21.5)"><foreignobject width="61.09375" height="17"><div xmlns="http://www.w3.org/1999/xhtml" style="display: inline-block; white-space: nowrap;"><span class="nodeLabel">📥  Sources</span></div></foreignobject></g></g></g><g class="edgePaths"><path d="M206.137,95L210.764,95C215.391,95,224.645,95,233.438,95C242.232,95,250.565,95,258.898,95C267.232,95,275.565,95,291.908,95C308.25,95,332.602,95,367.003,95C401.405,95,445.857,95,493.743,95C541.629,95,592.949,95,634.219,95C675.49,95,706.71,95,726.486,95C746.263,95,754.596,95,762.93,95C771.263,95,779.596,95,787.046,95C794.496,95,801.063,95,804.346,95L807.63,95" id="L-SYNTH-BR_SYNTH-0" class=" edge-thickness-normal edge-pattern-solid flowchart-link LS-SYNTH LE-BR_SYNTH" style="fill:none;" marker-end="url(#mermaid-1779201139069_flowchart-pointEnd)"></path><path d="M194.52,219.5L201.083,219.5C207.646,219.5,220.772,219.5,231.502,219.5C242.232,219.5,250.565,219.5,258.898,219.5C267.232,219.5,275.565,219.5,288.595,239.52C301.625,259.54,319.352,299.58,328.215,319.6L337.078,339.62" id="L-METEO-VOL-0" class=" edge-thickness-normal edge-pattern-solid flowchart-link LS-METEO LE-VOL" style="fill:none;" marker-end="url(#mermaid-1779201139069_flowchart-pointEnd)"></path><path d="M187.188,301.5L194.973,301.5C202.758,301.5,218.328,301.5,230.28,301.5C242.232,301.5,250.565,301.5,258.898,301.5C267.232,301.5,275.565,301.5,285.437,308.44C295.309,315.379,306.719,329.259,312.424,336.198L318.129,343.138" id="L-NOAA-VOL-0" class=" edge-thickness-normal edge-pattern-solid flowchart-link LS-NOAA LE-VOL" style="fill:none;" marker-end="url(#mermaid-1779201139069_flowchart-pointEnd)"></path><path d="M185.324,383.5L193.42,383.5C201.516,383.5,217.707,383.5,229.969,383.5C242.232,383.5,250.565,383.5,258.898,383.5C267.232,383.5,275.565,383.5,283.015,383.5C290.465,383.5,297.032,383.5,300.315,383.5L303.598,383.5" id="L-USGS-VOL-0" class=" edge-thickness-normal edge-pattern-solid flowchart-link LS-USGS LE-VOL" style="fill:none;" marker-end="url(#mermaid-1779201139069_flowchart-pointEnd)"></path><path d="M191.965,465.5L198.954,465.5C205.943,465.5,219.921,465.5,231.076,465.5C242.232,465.5,250.565,465.5,258.898,465.5C267.232,465.5,275.565,465.5,285.437,458.56C295.309,451.621,306.719,437.741,312.424,430.802L318.129,423.862" id="L-GDACS-VOL-0" class=" edge-thickness-normal edge-pattern-solid flowchart-link LS-GDACS LE-VOL" style="fill:none;" marker-end="url(#mermaid-1779201139069_flowchart-pointEnd)"></path><path d="M179.219,547.5L188.332,547.5C197.445,547.5,215.672,547.5,228.952,547.5C242.232,547.5,250.565,547.5,258.898,547.5C267.232,547.5,275.565,547.5,288.595,527.48C301.625,507.46,319.352,467.42,328.215,447.4L337.078,427.38" id="L-RELIEF-VOL-0" class=" edge-thickness-normal edge-pattern-solid flowchart-link LS-RELIEF LE-VOL" style="fill:none;" marker-end="url(#mermaid-1779201139069_flowchart-pointEnd)"></path><path d="M208.898,650.25L213.065,650.25C217.232,650.25,225.565,650.25,233.898,650.25C242.232,650.25,250.565,650.25,258.898,650.25C267.232,650.25,275.565,650.25,291.908,650.25C308.25,650.25,332.602,650.25,367.003,650.25C401.405,650.25,445.857,650.25,493.743,650.25C541.629,650.25,592.949,650.25,634.219,650.25C675.49,650.25,706.71,650.25,726.486,650.25C746.263,650.25,754.596,650.25,762.93,650.25C771.263,650.25,779.596,650.25,788.744,650.25C797.891,650.25,807.852,650.25,812.833,650.25L817.813,650.25" id="L-ALLIANZ-BR_PC-0" class=" edge-thickness-normal edge-pattern-solid flowchart-link LS-ALLIANZ LE-BR_PC" style="fill:none;" marker-end="url(#mermaid-1779201139069_flowchart-pointEnd)"></path><path d="M405.008,383.5L419.225,383.5C433.441,383.5,461.875,383.5,489.425,383.5C516.976,383.5,543.642,383.5,556.976,383.5L570.309,383.5" id="L-VOL-SCRIPTS-0" class=" edge-thickness-normal edge-pattern-solid flowchart-link LS-VOL LE-SCRIPTS" style="fill:none;" marker-end="url(#mermaid-1779201139069_flowchart-pointEnd)"></path><path d="M712.93,383.5L717.096,383.5C721.263,383.5,729.596,383.5,737.93,383.5C746.263,383.5,754.596,383.5,762.93,383.5C771.263,383.5,779.596,383.5,787.581,383.5C795.565,383.5,803.201,383.5,807.019,383.5L810.837,383.5" id="L-SCRIPTS-BR_EXT-0" class=" edge-thickness-normal edge-pattern-solid flowchart-link LS-SCRIPTS LE-BR_EXT" style="fill:none;" marker-end="url(#mermaid-1779201139069_flowchart-pointEnd)"></path><path d="M943.445,95L947.612,95C951.779,95,960.112,95,968.445,95C976.779,95,985.112,95,993.445,95C1001.779,95,1010.112,95,1017.592,95C1025.072,95,1031.698,95,1035.012,95L1038.325,95" id="L-BR_SYNTH-SIL_CORE-0" class=" edge-thickness-normal edge-pattern-solid flowchart-link LS-BR_SYNTH LE-SIL_CORE" style="fill:none;" marker-end="url(#mermaid-1779201139069_flowchart-pointEnd)"></path><path d="M940.238,383.5L944.939,383.5C949.641,383.5,959.043,383.5,967.911,383.5C976.779,383.5,985.112,383.5,993.445,383.5C1001.779,383.5,1010.112,383.5,1018.225,383.5C1026.337,383.5,1034.23,383.5,1038.176,383.5L1042.122,383.5" id="L-BR_EXT-SIL_EXT-0" class=" edge-thickness-normal edge-pattern-solid flowchart-link LS-BR_EXT LE-SIL_EXT" style="fill:none;" marker-end="url(#mermaid-1779201139069_flowchart-pointEnd)"></path><path d="M933.262,650.25L939.126,650.25C944.99,650.25,956.717,650.25,966.748,650.25C976.779,650.25,985.112,650.25,993.445,650.25C1001.779,650.25,1010.112,650.25,1017.562,650.25C1025.012,650.25,1031.579,650.25,1034.862,650.25L1038.145,650.25" id="L-BR_PC-SIL_PC-0" class=" edge-thickness-normal edge-pattern-solid flowchart-link LS-BR_PC LE-SIL_PC" style="fill:none;" marker-end="url(#mermaid-1779201139069_flowchart-pointEnd)"></path><path d="M1146.945,88.277L1151.142,87.731C1155.339,87.185,1163.732,86.092,1172.095,85.546C1180.458,85,1188.792,85,1197.125,85C1205.458,85,1213.792,85,1221.254,85.546C1228.715,86.092,1235.306,87.184,1238.601,87.73L1241.896,88.276" id="L-SIL_CORE-GOLD_CORE-0" class=" edge-thickness-normal edge-pattern-solid flowchart-link LS-SIL_CORE LE-GOLD_CORE" style="fill:none;" marker-end="url(#mermaid-1779201139069_flowchart-pointEnd)"></path><path d="M1111.969,338.5L1121.995,311.458C1132.021,284.417,1152.073,230.333,1166.266,203.292C1180.458,176.25,1188.792,176.25,1197.125,176.25C1205.458,176.25,1213.792,176.25,1221.401,173.846C1229.01,171.442,1235.895,166.633,1239.337,164.229L1242.78,161.825" id="L-SIL_EXT-GOLD_CORE-0" class=" edge-thickness-normal edge-pattern-solid flowchart-link LS-SIL_EXT LE-GOLD_CORE" style="fill:none;" marker-end="url(#mermaid-1779201139069_flowchart-pointEnd)"></path><path d="M1105.422,612.75L1116.539,571.625C1127.657,530.5,1149.891,448.25,1165.175,407.125C1180.458,366,1188.792,366,1197.125,366C1205.458,366,1213.792,366,1230.721,334.153C1247.651,302.307,1273.177,238.613,1285.94,206.766L1298.703,174.92" id="L-SIL_PC-GOLD_CORE-0" class=" edge-thickness-normal edge-pattern-solid flowchart-link LS-SIL_PC LE-GOLD_CORE" style="fill:none;" marker-end="url(#mermaid-1779201139069_flowchart-pointEnd)"></path><path d="M1109.148,147.5L1119.644,187.25C1130.14,227,1151.133,306.5,1165.796,346.25C1180.458,386,1188.792,386,1197.125,386C1205.458,386,1213.792,386,1232.069,420.308C1250.347,454.616,1278.569,523.232,1292.68,557.54L1306.791,591.848" id="L-SIL_CORE-GOLD_VIEWS-0" class=" edge-thickness-normal edge-pattern-solid flowchart-link LS-SIL_CORE LE-GOLD_VIEWS" style="fill:none;" marker-end="url(#mermaid-1779201139069_flowchart-pointEnd)"></path><path d="M1113.201,428.5L1123.022,453.167C1132.842,477.833,1152.484,527.167,1166.471,551.833C1180.458,576.5,1188.792,576.5,1197.125,576.5C1205.458,576.5,1213.792,576.5,1222.59,579.406C1231.388,582.311,1240.651,588.122,1245.282,591.028L1249.914,593.933" id="L-SIL_EXT-GOLD_VIEWS-0" class=" edge-thickness-normal edge-pattern-solid flowchart-link LS-SIL_EXT LE-GOLD_VIEWS" style="fill:none;" marker-end="url(#mermaid-1779201139069_flowchart-pointEnd)"></path><path d="M1147.125,661.55L1151.292,662.459C1155.458,663.367,1163.792,665.183,1172.125,666.092C1180.458,667,1188.792,667,1197.125,667C1205.458,667,1213.792,667,1222.123,666.044C1230.455,665.087,1238.785,663.174,1242.951,662.218L1247.116,661.261" id="L-SIL_PC-GOLD_VIEWS-0" class=" edge-thickness-normal edge-pattern-solid flowchart-link LS-SIL_PC LE-GOLD_VIEWS" style="fill:none;" marker-end="url(#mermaid-1779201139069_flowchart-pointEnd)"></path></g><g class="edgeLabels"><g class="edgeLabel" transform="translate(490.30859375, 95)"><g class="label" transform="translate(-34.640625, -7.5)"><foreignobject width="69.28125" height="15"><div xmlns="http://www.w3.org/1999/xhtml" style="display: inline-block; white-space: nowrap;"><span class="edgeLabel">direct write</span></div></foreignobject></g></g><g class="edgeLabel"><g class="label" transform="translate(0, 0)"><foreignobject width="0" height="0"><div xmlns="http://www.w3.org/1999/xhtml" style="display: inline-block; white-space: nowrap;"><span class="edgeLabel"></span></div></foreignobject></g></g><g class="edgeLabel"><g class="label" transform="translate(0, 0)"><foreignobject width="0" height="0"><div xmlns="http://www.w3.org/1999/xhtml" style="display: inline-block; white-space: nowrap;"><span class="edgeLabel"></span></div></foreignobject></g></g><g class="edgeLabel"><g class="label" transform="translate(0, 0)"><foreignobject width="0" height="0"><div xmlns="http://www.w3.org/1999/xhtml" style="display: inline-block; white-space: nowrap;"><span class="edgeLabel"></span></div></foreignobject></g></g><g class="edgeLabel"><g class="label" transform="translate(0, 0)"><foreignobject width="0" height="0"><div xmlns="http://www.w3.org/1999/xhtml" style="display: inline-block; white-space: nowrap;"><span class="edgeLabel"></span></div></foreignobject></g></g><g class="edgeLabel"><g class="label" transform="translate(0, 0)"><foreignobject width="0" height="0"><div xmlns="http://www.w3.org/1999/xhtml" style="display: inline-block; white-space: nowrap;"><span class="edgeLabel"></span></div></foreignobject></g></g><g class="edgeLabel" transform="translate(490.30859375, 650.25)"><g class="label" transform="translate(-60.30078125, -7.5)"><foreignobject width="120.6015625" height="15"><div xmlns="http://www.w3.org/1999/xhtml" style="display: inline-block; white-space: nowrap;"><span class="edgeLabel">merge_allianz_pc.py</span></div></foreignobject></g></g><g class="edgeLabel"><g class="label" transform="translate(0, 0)"><foreignobject width="0" height="0"><div xmlns="http://www.w3.org/1999/xhtml" style="display: inline-block; white-space: nowrap;"><span class="edgeLabel"></span></div></foreignobject></g></g><g class="edgeLabel"><g class="label" transform="translate(0, 0)"><foreignobject width="0" height="0"><div xmlns="http://www.w3.org/1999/xhtml" style="display: inline-block; white-space: nowrap;"><span class="edgeLabel"></span></div></foreignobject></g></g><g class="edgeLabel"><g class="label" transform="translate(0, 0)"><foreignobject width="0" height="0"><div xmlns="http://www.w3.org/1999/xhtml" style="display: inline-block; white-space: nowrap;"><span class="edgeLabel"></span></div></foreignobject></g></g><g class="edgeLabel"><g class="label" transform="translate(0, 0)"><foreignobject width="0" height="0"><div xmlns="http://www.w3.org/1999/xhtml" style="display: inline-block; white-space: nowrap;"><span class="edgeLabel"></span></div></foreignobject></g></g><g class="edgeLabel"><g class="label" transform="translate(0, 0)"><foreignobject width="0" height="0"><div xmlns="http://www.w3.org/1999/xhtml" style="display: inline-block; white-space: nowrap;"><span class="edgeLabel"></span></div></foreignobject></g></g><g class="edgeLabel"><g class="label" transform="translate(0, 0)"><foreignobject width="0" height="0"><div xmlns="http://www.w3.org/1999/xhtml" style="display: inline-block; white-space: nowrap;"><span class="edgeLabel"></span></div></foreignobject></g></g><g class="edgeLabel"><g class="label" transform="translate(0, 0)"><foreignobject width="0" height="0"><div xmlns="http://www.w3.org/1999/xhtml" style="display: inline-block; white-space: nowrap;"><span class="edgeLabel"></span></div></foreignobject></g></g><g class="edgeLabel"><g class="label" transform="translate(0, 0)"><foreignobject width="0" height="0"><div xmlns="http://www.w3.org/1999/xhtml" style="display: inline-block; white-space: nowrap;"><span class="edgeLabel"></span></div></foreignobject></g></g><g class="edgeLabel"><g class="label" transform="translate(0, 0)"><foreignobject width="0" height="0"><div xmlns="http://www.w3.org/1999/xhtml" style="display: inline-block; white-space: nowrap;"><span class="edgeLabel"></span></div></foreignobject></g></g><g class="edgeLabel"><g class="label" transform="translate(0, 0)"><foreignobject width="0" height="0"><div xmlns="http://www.w3.org/1999/xhtml" style="display: inline-block; white-space: nowrap;"><span class="edgeLabel"></span></div></foreignobject></g></g><g class="edgeLabel"><g class="label" transform="translate(0, 0)"><foreignobject width="0" height="0"><div xmlns="http://www.w3.org/1999/xhtml" style="display: inline-block; white-space: nowrap;"><span class="edgeLabel"></span></div></foreignobject></g></g></g><g class="nodes"><g class="node default default flowchart-label" id="flowchart-GOLD_CORE-15" data-node="true" data-id="GOLD_CORE" transform="translate(1327.7265625, 102.5)"><rect class="basic label-container" style=" fill:#f1b7ff;stroke:#aa55cc;" rx="0" ry="0" x="-80.6015625" y="-67.5" width="161.203125" height="135"></rect><g class="label" style="color:#1b1b1b;" transform="translate(-73.1015625, -60)"><rect></rect><foreignobject width="146.203125" height="120"><div style="color: rgb(27, 27, 27); display: inline-block; white-space: nowrap;" xmlns="http://www.w3.org/1999/xhtml"><span class="nodeLabel" style="color:#1b1b1b;">underwriting_kpis<br>claims_summary<br>exposure_accumulation<br>solvency_capital<br>asset_portfolio_summary<br>reinsurance_summary<br>event_risk_correlation<br>cat_event_pml</span></div></foreignobject></g></g><g class="node default default flowchart-label" id="flowchart-GOLD_VIEWS-16" data-node="true" data-id="GOLD_VIEWS" transform="translate(1327.7265625, 642.75)"><rect class="basic label-container" style="fill:#f1b7ff;stroke:#aa55cc;" rx="0" ry="0" x="-75.4453125" y="-46" width="150.890625" height="92"></rect><g class="label" style="color:#1b1b1b;" transform="translate(-67.9453125, -38.5)"><rect></rect><foreignobject width="135.890625" height="77"><div style="color: rgb(27, 27, 27); display: inline-block; white-space: nowrap;" xmlns="http://www.w3.org/1999/xhtml"><span class="nodeLabel" style="color:#1b1b1b;">⊕ policy_customer_360<br>⊕ claim_360<br>loss_ratio_by_segment<br>book_health<br>peril_loss_summary</span></div></foreignobject></g></g><g class="node default default flowchart-label" id="flowchart-SIL_CORE-12" data-node="true" data-id="SIL_CORE" transform="translate(1095.28515625, 95)"><rect class="basic label-container" style="fill:#daf181;stroke:#8aaa30;" rx="0" ry="0" x="-51.66015625" y="-52.5" width="103.3203125" height="105"></rect><g class="label" style="color:#1b1b1b;" transform="translate(-44.16015625, -45)"><rect></rect><foreignobject width="88.3203125" height="90"><div style="color: rgb(27, 27, 27); display: inline-block; white-space: nowrap;" xmlns="http://www.w3.org/1999/xhtml"><span class="nodeLabel" style="color:#1b1b1b;">dim_policy<br>fact_claim<br>fact_premium<br>dim_customer<br>dim_geography<br>dim_asset</span></div></foreignobject></g></g><g class="node default default flowchart-label" id="flowchart-SIL_EXT-13" data-node="true" data-id="SIL_EXT" transform="translate(1095.28515625, 383.5)"><rect class="basic label-container" style=" fill:#daf181;stroke:#8aaa30;" rx="0" ry="0" x="-47.86328125" y="-45" width="95.7265625" height="90"></rect><g class="label" style="color:#1b1b1b;" transform="translate(-40.36328125, -37.5)"><rect></rect><foreignobject width="80.7265625" height="75"><div style="color: rgb(27, 27, 27); display: inline-block; white-space: nowrap;" xmlns="http://www.w3.org/1999/xhtml"><span class="nodeLabel" style="color:#1b1b1b;">weather_obs<br>noaa_alerts<br>catastrophe_*<br>earthquake_*<br>news_events</span></div></foreignobject></g></g><g class="node default default flowchart-label" id="flowchart-SIL_PC-14" data-node="true" data-id="SIL_PC" transform="translate(1095.28515625, 650.25)"><rect class="basic label-container" style="  fill:#daf181;stroke:#8aaa30;" rx="0" ry="0" x="-51.83984375" y="-37.5" width="103.6796875" height="75"></rect><g class="label" style="color:#1b1b1b;" transform="translate(-44.33984375, -30)"><rect></rect><foreignobject width="88.6796875" height="60"><div style="color: rgb(27, 27, 27); display: inline-block; white-space: nowrap;" xmlns="http://www.w3.org/1999/xhtml"><span class="nodeLabel" style="color:#1b1b1b;">pc_policies<br>pc_combined_*<br>pc_solvency_*<br>pc_loss_dev</span></div></foreignobject></g></g><g class="node default flowchart-label" id="flowchart-BR_SYNTH-9" data-node="true" data-id="BR_SYNTH" transform="translate(878.1875, 95)"><rect class="basic label-container" style="fill:#ffcfbd;stroke:#e07050;" rx="0" ry="0" x="-65.2578125" y="-52.5" width="130.515625" height="105"></rect><g class="label" style="color:#1b1b1b;" transform="translate(-57.7578125, -45)"><rect></rect><foreignobject width="115.515625" height="90"><div style="color: rgb(27, 27, 27); display: inline-block; white-space: nowrap;" xmlns="http://www.w3.org/1999/xhtml"><span class="nodeLabel" style="color:#1b1b1b;">policies_raw<br>claims_raw<br>premiums_raw<br>customers_raw<br>geography_raw<br>asset_portfolio_raw</span></div></foreignobject></g></g><g class="node default default flowchart-label" id="flowchart-BR_EXT-10" data-node="true" data-id="BR_EXT" transform="translate(878.1875, 383.5)"><rect class="basic label-container" style="  fill:#ffcfbd;stroke:#e07050;" rx="0" ry="0" x="-62.05078125" y="-45" width="124.1015625" height="90"></rect><g class="label" style="color:#1b1b1b;" transform="translate(-54.55078125, -37.5)"><rect></rect><foreignobject width="109.1015625" height="75"><div style="color: rgb(27, 27, 27); display: inline-block; white-space: nowrap;" xmlns="http://www.w3.org/1999/xhtml"><span class="nodeLabel" style="color:#1b1b1b;">weather_obs_raw<br>noaa_alerts_raw<br>catastrophe_*_raw<br>earthquakes_raw<br>news_raw</span></div></foreignobject></g></g><g class="node default default flowchart-label" id="flowchart-BR_PC-11" data-node="true" data-id="BR_PC" transform="translate(878.1875, 650.25)"><rect class="basic label-container" style="   fill:#ffcfbd;stroke:#e07050;" rx="0" ry="0" x="-55.07421875" y="-30" width="110.1484375" height="60"></rect><g class="label" style="color:#1b1b1b;" transform="translate(-47.57421875, -22.5)"><rect></rect><foreignobject width="95.1484375" height="45"><div style="color: rgb(27, 27, 27); display: inline-block; white-space: nowrap;" xmlns="http://www.w3.org/1999/xhtml"><span class="nodeLabel" style="color:#1b1b1b;">pc_policies_raw<br>pc_claims_raw<br>pc_invest_*_raw</span></div></foreignobject></g></g><g class="node default default flowchart-label" id="flowchart-VOL-7" label-offset-y="10.866723199773869" data-node="true" data-id="VOL" transform="translate(356.953125, 383.5)"><path style="    fill:#ffdf69;stroke:#d4a800;" d="M 0,10.866723199773869 a 48.0546875,10.866723199773869 0,0,0 96.109375 0 a 48.0546875,10.866723199773869 0,0,0 -96.109375 0 l 0,57.86672319977387 a 48.0546875,10.866723199773869 0,0,0 96.109375 0 l 0,-57.86672319977387" transform="translate(-48.0546875,-39.80008479966081)"></path><g class="label" style="color:#1b1b1b;" transform="translate(-40.5546875, -16)"><rect></rect><foreignobject width="81.109375" height="32"><div style="color: rgb(27, 27, 27); display: inline-block; white-space: nowrap;" xmlns="http://www.w3.org/1999/xhtml"><span class="nodeLabel" style="color:#1b1b1b;">📁 feed/.parq<br>Volume files</span></div></foreignobject></g></g><g class="node default default flowchart-label" id="flowchart-SCRIPTS-8" data-node="true" data-id="SCRIPTS" transform="translate(644.26953125, 383.5)"><rect class="basic label-container" style="fill:#ffdf69;stroke:#d4a800;" rx="0" ry="0" x="-68.66015625" y="-31" width="137.3203125" height="62"></rect><g class="label" style="color:#1b1b1b;" transform="translate(-61.16015625, -23.5)"><rect></rect><foreignobject width="122.3203125" height="47"><div style="color: rgb(27, 27, 27); display: inline-block; white-space: nowrap;" xmlns="http://www.w3.org/1999/xhtml"><span class="nodeLabel" style="color:#1b1b1b;">⚙️ external_feeds.py<br>ingest_external.py<br>merge_allianz_pc.py</span></div></foreignobject></g></g><g class="node default default flowchart-label" id="flowchart-SYNTH-0" data-node="true" data-id="SYNTH" transform="translate(116.94921875, 95)"><rect class="basic label-container" style=" fill:#a9e0ff;stroke:#5bbfee;" rx="0" ry="0" x="-89.1875" y="-38.5" width="178.375" height="77"></rect><g class="label" style="color:#1b1b1b;" transform="translate(-81.6875, -31)"><rect></rect><foreignobject width="163.375" height="62"><div style="color: rgb(27, 27, 27); display: inline-block; white-space: nowrap;" xmlns="http://www.w3.org/1999/xhtml"><span class="nodeLabel" style="color:#1b1b1b;">🏗️ Synthetic Core Systems<br>policies · claims · premiums<br>customers · agents · geo<br>reinsurance · assets</span></div></foreignobject></g></g><g class="node default default flowchart-label" id="flowchart-METEO-1" data-node="true" data-id="METEO" transform="translate(116.94921875, 219.5)"><rect class="basic label-container" style=" fill:#a9e0ff;stroke:#5bbfee;" rx="0" ry="0" x="-77.5703125" y="-16" width="155.140625" height="32"></rect><g class="label" style="color:#1b1b1b;" transform="translate(-70.0703125, -8.5)"><rect></rect><foreignobject width="140.140625" height="17"><div style="color: rgb(27, 27, 27); display: inline-block; white-space: nowrap;" xmlns="http://www.w3.org/1999/xhtml"><span class="nodeLabel" style="color:#1b1b1b;">🌤️ Open-Meteo Weather</span></div></foreignobject></g></g><g class="node default default flowchart-label" id="flowchart-NOAA-2" data-node="true" data-id="NOAA" transform="translate(116.94921875, 301.5)"><rect class="basic label-container" style="  fill:#a9e0ff;stroke:#5bbfee;" rx="0" ry="0" x="-70.23828125" y="-16" width="140.4765625" height="32"></rect><g class="label" style="color:#1b1b1b;" transform="translate(-62.73828125, -8.5)"><rect></rect><foreignobject width="125.4765625" height="17"><div style="color: rgb(27, 27, 27); display: inline-block; white-space: nowrap;" xmlns="http://www.w3.org/1999/xhtml"><span class="nodeLabel" style="color:#1b1b1b;">🔔 NOAA Active Alerts</span></div></foreignobject></g></g><g class="node default default flowchart-label" id="flowchart-USGS-3" data-node="true" data-id="USGS" transform="translate(116.94921875, 383.5)"><rect class="basic label-container" style="  fill:#a9e0ff;stroke:#5bbfee;" rx="0" ry="0" x="-68.375" y="-16" width="136.75" height="32"></rect><g class="label" style="color:#1b1b1b;" transform="translate(-60.875, -8.5)"><rect></rect><foreignobject width="121.75" height="17"><div style="color: rgb(27, 27, 27); display: inline-block; white-space: nowrap;" xmlns="http://www.w3.org/1999/xhtml"><span class="nodeLabel" style="color:#1b1b1b;">🌍 USGS Earthquakes</span></div></foreignobject></g></g><g class="node default default flowchart-label" id="flowchart-GDACS-4" data-node="true" data-id="GDACS" transform="translate(116.94921875, 465.5)"><rect class="basic label-container" style=" fill:#a9e0ff;stroke:#5bbfee;" rx="0" ry="0" x="-75.015625" y="-16" width="150.03125" height="32"></rect><g class="label" style="color:#1b1b1b;" transform="translate(-67.515625, -8.5)"><rect></rect><foreignobject width="135.03125" height="17"><div style="color: rgb(27, 27, 27); display: inline-block; white-space: nowrap;" xmlns="http://www.w3.org/1999/xhtml"><span class="nodeLabel" style="color:#1b1b1b;">🌀 GDACS Catastrophes</span></div></foreignobject></g></g><g class="node default default flowchart-label" id="flowchart-RELIEF-5" data-node="true" data-id="RELIEF" transform="translate(116.94921875, 547.5)"><rect class="basic label-container" style="fill:#a9e0ff;stroke:#5bbfee;" rx="0" ry="0" x="-62.26953125" y="-16" width="124.5390625" height="32"></rect><g class="label" style="color:#1b1b1b;" transform="translate(-54.76953125, -8.5)"><rect></rect><foreignobject width="109.5390625" height="17"><div style="color: rgb(27, 27, 27); display: inline-block; white-space: nowrap;" xmlns="http://www.w3.org/1999/xhtml"><span class="nodeLabel" style="color:#1b1b1b;">📰 ReliefWeb News</span></div></foreignobject></g></g><g class="node default default flowchart-label" id="flowchart-ALLIANZ-6" data-node="true" data-id="ALLIANZ" transform="translate(116.94921875, 650.25)"><rect class="basic label-container" style="fill:#a9e0ff;stroke:#5bbfee;" rx="0" ry="0" x="-91.94921875" y="-23.5" width="183.8984375" height="47"></rect><g class="label" style="color:#1b1b1b;" transform="translate(-84.44921875, -16)"><rect></rect><foreignobject width="168.8984375" height="32"><div style="color: rgb(27, 27, 27); display: inline-block; white-space: nowrap;" xmlns="http://www.w3.org/1999/xhtml"><span class="nodeLabel" style="color:#1b1b1b;">🗂️ Migrated Allianz PC Tables<br>10 P&C reference tables</span></div></foreignobject></g></g></g></g></g></svg>